<?xml version="1.0" encoding="UTF-8" standalone="no"?>
<svg
   viewBox="0 0 24 24"
   width="24px"
   height="24px"
   version="1.1"
   id="svg4"
   sodipodi:docname="menue.svg"
   inkscape:version="1.1.2 (b8e25be833, 2022-02-05)"
   xmlns:inkscape="http://www.inkscape.org/namespaces/inkscape"
   xmlns:sodipodi="http://sodipodi.sourceforge.net/DTD/sodipodi-0.dtd"
   xmlns="http://www.w3.org/2000/svg"
   xmlns:svg="http://www.w3.org/2000/svg">
  <defs
     id="defs8" />
  <sodipodi:namedview
     id="namedview6"
     pagecolor="#505050"
     bordercolor="#eeeeee"
     borderopacity="1"
     inkscape:pageshadow="0"
     inkscape:pageopacity="0"
     inkscape:pagecheckerboard="0"
     showgrid="false"
     inkscape:zoom="25.375"
     inkscape:cx="8.6502463"
     inkscape:cy="12.137931"
     inkscape:window-width="1440"
     inkscape:window-height="837"
     inkscape:window-x="-8"
     inkscape:window-y="32"
     inkscape:window-maximized="1"
     inkscape:current-layer="svg4" />
  <path
     d="M 3 5 A 1.0001 1.0001 0 1 0 3 7 L 21 7 A 1.0001 1.0001 0 1 0 21 5 L 3 5 z M 3 11 A 1.0001 1.0001 0 1 0 3 13 L 21 13 A 1.0001 1.0001 0 1 0 21 11 L 3 11 z M 3 17 A 1.0001 1.0001 0 1 0 3 19 L 21 19 A 1.0001 1.0001 0 1 0 21 17 L 3 17 z"
     id="path2"
     style="fill:#000000" />
</svg>
